<?xml version="1.0" encoding="UTF-8"?>
<svg xmlns="http://www.w3.org/2000/svg" viewBox="0 0 512 512" role="img" aria-labelledby="title desc">
  <title id="title">أيقونة الحريف لمتجر Play</title>
  <desc id="desc">الأصل المتجهي المسطح للأيقونة، بمساحة آمنة للأقنعة المختلفة</desc>
  <rect width="512" height="512" fill="#10140F"/>
  <g transform="translate(96 96) scale(1.25)">
    <path
      fill="#7ED957"
      d="M44 42h177l-25 30h-21l-72 89c-15 19-16 38-1 50 17 14 49 8 82-13l24-16-10 36c-32 24-73 32-104 17-33-15-46-47-31-77 4-8 9-17 16-25l51-61H70c-13 0-18 8-18 21v15L24 93V75c0-18 8-33 20-33Z"/>
    <path fill="#F4F7EE" d="M29 128h46l-18 23H12l17-23Zm126 0h68l-18 23h-68l18-23Z"/>
  </g>
</svg>
